<svg xmlns="http://www.w3.org/2000/svg" xmlns:xlink="http://www.w3.org/1999/xlink" width="3750" height="3750" viewBox="0 0 3750 3750">

<path fill-rule="nonzero" fill="rgb(13.330078%, 13.330078%, 13.330078%)" fill-opacity="1" d="M 1853.71875 979.769531 C 1827.730469 978.589844 1801.269531 981.898438 1775.839844 989.179688 C 1775.679688 989.25 1775.519531 989.328125 1775.359375 989.410156 C 1775.199219 989.398438 1775.050781 989.398438 1774.890625 989.410156 C 1770.441406 990.929688 1766.398438 993.429688 1763.058594 996.730469 C 1762.070312 997.839844 1761.171875 999.03125 1760.359375 1000.269531 C 1758.960938 1001.691406 1757.691406 1003.238281 1756.578125 1004.898438 L 1210.558594 2065.199219 C 1164.140625 2083.460938 1121.839844 2110.890625 1086.410156 2146.140625 C 943.820312 2288.730469 943.820312 2520.871094 1086.410156 2663.46875 C 1229.011719 2806.0625 1461.148438 2806.0625 1603.75 2663.46875 C 1639.058594 2628.148438 1666.558594 2585.910156 1684.929688 2539.570312 L 2744.980469 1993.308594 C 2747.46875 1991.988281 2749.769531 1990.339844 2751.808594 1988.410156 C 2752.128906 1988.109375 2752.449219 1987.789062 2752.761719 1987.46875 C 2756.320312 1983.878906 2758.96875 1979.480469 2760.460938 1974.640625 C 2760.621094 1974.410156 2760.78125 1974.171875 2760.929688 1973.929688 C 2780.441406 1906.109375 2770.828125 1831.039062 2727.359375 1776.671875 C 2690.519531 1730.589844 2624.808594 1710.828125 2546.820312 1718.320312 C 2560.429688 1637.929688 2545.878906 1563.328125 2496.890625 1514.949219 C 2447.699219 1466.269531 2371.839844 1450.140625 2289.25 1460.621094 C 2299.738281 1378.039062 2283.488281 1302.179688 2234.808594 1252.980469 C 2186.429688 1204.089844 2111.949219 1189.441406 2031.558594 1203.058594 C 2039.050781 1125.070312 2019.300781 1059.359375 1973.210938 1022.519531 C 1946.019531 1000.78125 1913.628906 987.519531 1879.578125 982.109375 C 1871.078125 980.691406 1862.480469 979.980469 1853.828125 979.558594 Z M 1850.550781 1042.519531 C 1882.109375 1043.941406 1911.949219 1053.910156 1934.050781 1071.570312 C 1969.398438 1099.839844 1990.648438 1146.730469 1970.671875 1228.308594 C 1970.070312 1232.039062 1970.140625 1235.839844 1970.890625 1239.53125 L 1504.828125 1912.019531 L 1409.128906 1816.308594 L 1805.609375 1046.421875 C 1820.570312 1043.25 1835.71875 1041.828125 1850.539062 1042.519531 Z M 2079.308594 1253.820312 C 2125.808594 1253.351562 2163.308594 1269.910156 2190.269531 1297.160156 C 2228.199219 1335.5 2246.929688 1398.140625 2229.210938 1476.601562 L 1649.378906 2056.550781 L 1549.769531 1956.941406 L 2032.429688 1260.410156 C 2032.601562 1260.101562 2032.75 1259.789062 2032.910156 1259.46875 C 2049.210938 1255.789062 2064.71875 1253.871094 2079.289062 1253.730469 Z M 2323.820312 1514.078125 C 2378.820312 1512.421875 2423.109375 1530.191406 2452.839844 1559.609375 C 2488.730469 1595.109375 2505.929688 1648.988281 2490.320312 1717.570312 C 2490.078125 1717.640625 2489.851562 1717.71875 2489.609375 1717.800781 L 1793.078125 2200.339844 L 1693.46875 2100.730469 L 2273.300781 1520.769531 C 2290.898438 1516.808594 2307.808594 1514.558594 2323.71875 1514.070312 Z M 2576.628906 1771.640625 C 2625.558594 1770.699219 2657.230469 1789.320312 2678.429688 1815.839844 C 2704.359375 1848.269531 2713.53125 1897.441406 2703.699219 1944.25 L 1933.800781 2340.980469 L 1838.101562 2245.28125 L 2510.949219 1779.089844 C 2514.488281 1779.789062 2518.128906 1779.871094 2521.699219 1779.320312 C 2542.089844 1774.339844 2560.320312 1771.898438 2576.628906 1771.621094 Z M 1379.109375 1874.671875 L 1468.710938 1964.269531 L 1338.828125 2151.53125 L 1271.328125 2084.019531 Z M 1513.519531 2009.070312 L 1605.191406 2100.75 L 1446.621094 2259.320312 L 1383.75 2196.449219 Z M 1228.109375 2129.191406 L 1424.398438 2325.480469 C 1424.441406 2325.550781 1424.480469 2325.628906 1424.519531 2325.710938 C 1424.589844 2325.75 1424.671875 2325.78125 1424.75 2325.820312 L 1621.039062 2522.109375 C 1605.839844 2557.710938 1587.070312 2591.828125 1559.628906 2619.28125 C 1440.921875 2737.988281 1249.390625 2737.988281 1130.679688 2619.28125 C 1011.96875 2500.570312 1011.96875 2309.039062 1130.679688 2190.320312 C 1158.191406 2162.980469 1192.46875 2144.25 1228.089844 2129.171875 Z M 1649.378906 2144.941406 L 1741.058594 2236.621094 L 1553.679688 2366.378906 L 1490.808594 2303.519531 Z M 1785.96875 2281.539062 L 1875.449219 2371.019531 L 1666.21875 2478.929688 L 1598.601562 2411.300781 Z M 1785.96875 2281.539062 " data-index="1" style="opacity: 1;"></path>
<path fill-rule="nonzero" fill="rgb(13.330078%, 46.263123%, 73.631287%)" fill-opacity="1" d="M 1785.96875 2281.53125 L 1875.441406 2371.011719 L 1666.21875 2478.921875 L 1598.589844 2411.289062 Z M 1785.96875 2281.53125 " data-index="2" style="opacity: 1;"></path>
<path fill-rule="nonzero" fill="rgb(13.330078%, 46.263123%, 73.631287%)" fill-opacity="1" d="M 1649.371094 2144.941406 L 1741.039062 2236.609375 L 1553.660156 2366.371094 L 1490.800781 2303.511719 Z M 1649.371094 2144.941406 " data-index="3" style="opacity: 1;"></path>
<path fill-rule="nonzero" fill="rgb(96.09375%, 96.484375%, 91.014099%)" fill-opacity="1" d="M 1228.109375 2129.191406 L 1424.390625 2325.480469 C 1424.429688 2325.550781 1424.46875 2325.628906 1424.511719 2325.710938 C 1424.578125 2325.75 1424.660156 2325.78125 1424.738281 2325.820312 L 1621.019531 2522.109375 C 1605.839844 2557.710938 1587.070312 2591.828125 1559.628906 2619.28125 C 1440.910156 2737.988281 1249.378906 2737.988281 1130.671875 2619.28125 C 1011.960938 2500.570312 1011.960938 2309.039062 1130.671875 2190.320312 C 1158.179688 2162.980469 1192.460938 2144.25 1228.078125 2129.171875 Z M 1228.109375 2129.191406 " data-index="4" style="opacity: 1;"></path>
<path fill-rule="nonzero" fill="rgb(13.330078%, 46.263123%, 73.631287%)" fill-opacity="1" d="M 1513.5 2009.070312 L 1605.179688 2100.75 L 1446.609375 2259.320312 L 1383.75 2196.449219 Z M 1513.5 2009.070312 " data-index="5" style="opacity: 1;"></path>
<path fill-rule="nonzero" fill="rgb(13.330078%, 46.263123%, 73.631287%)" fill-opacity="1" d="M 1379.109375 1874.671875 L 1468.699219 1964.269531 L 1338.820312 2151.53125 L 1271.320312 2084.019531 Z M 1379.109375 1874.671875 " data-index="6" style="opacity: 1;"></path>
<path fill-rule="nonzero" fill="rgb(96.09375%, 96.484375%, 91.014099%)" fill-opacity="1" d="M 2576.609375 1771.640625 C 2625.550781 1770.699219 2657.21875 1789.320312 2678.421875 1815.839844 C 2704.351562 1848.269531 2713.519531 1897.441406 2703.691406 1944.25 L 1933.789062 2340.980469 L 1838.089844 2245.28125 L 2510.941406 1779.089844 C 2514.480469 1779.789062 2518.121094 1779.871094 2521.691406 1779.320312 C 2542.070312 1774.339844 2560.308594 1771.898438 2576.621094 1771.621094 Z M 2576.609375 1771.640625 " data-index="7" style="opacity: 1;"></path>
<path fill-rule="nonzero" fill="rgb(96.09375%, 96.484375%, 91.014099%)" fill-opacity="1" d="M 2323.808594 1514.078125 C 2378.820312 1512.421875 2423.101562 1530.191406 2452.839844 1559.609375 C 2488.71875 1595.109375 2505.921875 1648.988281 2490.308594 1717.570312 C 2490.070312 1717.640625 2489.839844 1717.71875 2489.601562 1717.800781 L 1793.070312 2200.339844 L 1693.460938 2100.730469 L 2273.289062 1520.769531 C 2290.890625 1516.808594 2307.789062 1514.558594 2323.710938 1514.070312 Z M 2323.808594 1514.078125 " data-index="8"></path>
<path fill-rule="nonzero" fill="rgb(96.09375%, 96.484375%, 91.014099%)" fill-opacity="1" d="M 2079.300781 1253.820312 C 2125.800781 1253.351562 2163.300781 1269.910156 2190.261719 1297.160156 C 2228.191406 1335.5 2246.921875 1398.140625 2229.199219 1476.601562 L 1649.371094 2056.550781 L 1549.761719 1956.941406 L 2032.429688 1260.410156 C 2032.589844 1260.101562 2032.75 1259.789062 2032.898438 1259.46875 C 2049.199219 1255.789062 2064.710938 1253.871094 2079.289062 1253.730469 Z M 2079.300781 1253.820312 " data-index="9" style="opacity: 1;"></path>
<path fill-rule="nonzero" fill="rgb(96.09375%, 96.484375%, 91.014099%)" fill-opacity="1" d="M 1850.539062 1042.519531 C 1882.101562 1043.941406 1911.941406 1053.910156 1934.039062 1071.570312 C 1969.390625 1099.839844 1990.640625 1146.730469 1970.660156 1228.308594 C 1970.058594 1232.039062 1970.128906 1235.839844 1970.890625 1239.53125 L 1504.820312 1912.019531 L 1409.121094 1816.308594 L 1805.601562 1046.421875 C 1820.558594 1043.25 1835.710938 1041.828125 1850.519531 1042.519531 Z M 1850.539062 1042.519531 " data-index="10"></path>
</svg>