<svg height="1993" viewBox="151.919 173.84 1974.837 1627.156" width="2500" xmlns="http://www.w3.org/2000/svg"><path d="m2030.339 1092.768-.019-.137c-.096-.681-.195-1.36-.3-2.037l-.032-.203c-.101-.647-.205-1.293-.314-1.937l-.047-.278c-.108-.643-.222-1.284-.34-1.924l-.04-.22a154.39 154.39 0 0 0 -.398-2.07l-.01-.048c-.434-2.17-.916-4.322-1.444-6.457l-.008-.031c-.163-.661-.333-1.321-.506-1.978-.04-.155-.083-.309-.123-.464-.14-.526-.282-1.051-.429-1.575l-.153-.543a147.832 147.832 0 0 0 -.61-2.093c-.141-.472-.287-.942-.432-1.412l-.197-.631c-.149-.472-.302-.943-.457-1.413l-.191-.583c-.17-.51-.344-1.017-.519-1.525-.055-.158-.107-.316-.162-.473-.216-.617-.437-1.233-.661-1.846l-.047-.13c-.244-.666-.493-1.329-.747-1.99-.049-.129-.102-.256-.152-.385a91.568 91.568 0 0 0 -.881-2.211c-.172-.419-.343-.838-.518-1.255-.108-.257-.218-.514-.328-.771a142.16 142.16 0 0 0 -.496-1.149c-.112-.258-.228-.516-.342-.774a97.93 97.93 0 0 0 -.517-1.146c-.119-.263-.241-.526-.361-.788-.172-.37-.347-.739-.52-1.108-.123-.258-.245-.515-.369-.772-.191-.394-.385-.786-.578-1.178-.115-.233-.229-.467-.345-.699-.206-.409-.415-.816-.624-1.222-.113-.219-.223-.438-.338-.656-.319-.613-.644-1.225-.973-1.835l-33.696-80.931a.133.133 0 0 0 -.005.019l-110.92-266.311 256.566-458.153-15.402-65.604-1368.245 268.378-200.818 308.094c-8.602-39.865 5.027-69.639 5.027-69.639l-41.162 14.201c-23.117 47.977-1.685 95.135-1.685 95.135-45.603-49.973-21.699-156.068-21.699-156.068l-95.742 40.894c1.654 82.769 47.116 157.531 47.116 157.531-56.388-12.089-94.917-108.041-94.917-108.041-18.328 28.594-36.643 57.218-54.972 85.812 10.501 28.867 41.457 103.053 115.453 158.924l-247.79 380.159 18.65 53.2 460.286-84.889 120.248 288.738 31.191 74.908a135.212 135.212 0 0 0 10.377 25.049c34.532 63.755 117.132 94.769 226.991 94.769a611.707 611.707 0 0 0 18.664-.293c.258-.003.517-.006.777-.006l1.266-.048 3.505-.131c1.128-.048 2.257-.098 3.389-.15l.305-.013.797-.038c140.469-6.483 319.354-59.528 498.137-155.904.721-.384 1.443-.771 2.164-1.167 147.923-80.023 271.094-176.471 356.074-272.009l.013-.014c.705-.793 1.409-1.586 2.109-2.379l-.003-.007c88.048-99.724 134.322-198.305 123.479-276.069z" fill="#d41f25"/><path d="m2126.754 239.444-15.402-65.604-1368.243 268.379-200.818 308.094c7.984 36.999 35.12 82.691 110.078 121.339 0 0 40.269 11.983 69.483 40.215a120.757 120.757 0 0 1 5.054 5.184 59.095 59.095 0 0 1 7.044-4.183c9.627-4.844 19.957-6.771 29.987-6.122l.026.002c20.001 1.303 38.807 12.866 48.467 32.067a58.998 58.998 0 0 1 3.59 8.869c93.895-.144 185.31-15.031 269.681-56.989a471.18 471.18 0 0 0 5.451-2.749c37.325-19.15 75.488-42.825 104.112-74.492a214.328 214.328 0 0 0 6.702-7.779c4.88-5.954 9.426-12.177 13.568-18.692a213.692 213.692 0 0 0 3.707-6.047c23.126-22.44 30.954-53.208 17.006-74.71-5.083-7.835-12.472-13.527-21.253-17.024l-.272-.109.404.101c11.708 2.927 21.927 9.711 28.812 21.648 15.384 26.675-1.509 62.487-20.602 89.271a245.801 245.801 0 0 1 -15.638 19.685 230.06 230.06 0 0 1 -2.719 3.028c-30.047 32.87-68.453 57.644-108.098 77.838a696.176 696.176 0 0 1 -15.83 7.806c-82.809 39.566-170.071 61.547-262.375 56.609-.015 21.374-11.795 41.956-32.192 52.216-26.366 13.264-57.996 4.685-74.311-18.925-11.334 8.588-24.586 16.812-39.904 23.604a194.426 194.426 0 0 1 -8.413 3.494c-17.847 6.936-35.735 10.866-53.25 12.515-85.412 8.108-161.964-37.564-182.149-49.582a317.684 317.684 0 0 1 -28.748-19.339l-247.79 380.159 18.65 53.2 460.286-84.889 120.248 288.738 8.409 20.159c38.229 12.464 83.734 18.607 134.547 18.607 4.962 0 9.976-.061 15.039-.177 1.974-.045 3.991-.138 5.982-.203 3.107-.099 6.2-.182 9.343-.323 2.466-.112 4.975-.275 7.465-.413 2.705-.15 5.392-.28 8.123-.46 2.776-.183 5.593-.422 8.398-.638 2.483-.192 4.95-.364 7.455-.581 3.004-.261 6.046-.575 9.078-.872 2.342-.23 4.668-.44 7.026-.69 3.147-.337 6.331-.722 9.505-1.097 2.297-.271 4.583-.525 6.896-.816 3.21-.403 6.454-.856 9.691-1.3 2.322-.318 4.633-.621 6.968-.958 3.232-.467 6.495-.98 9.751-1.485 2.393-.371 4.776-.729 7.183-1.122 3.205-.523 6.44-1.087 9.672-1.646 2.508-.435 5.011-.857 7.535-1.315 3.125-.565 6.275-1.168 9.423-1.767 2.69-.512 5.375-1.018 8.081-1.555 2.973-.589 5.966-1.213 8.959-1.833 2.948-.61 5.893-1.219 8.857-1.857 2.749-.593 5.513-1.215 8.278-1.833 3.276-.733 6.552-1.466 9.847-2.234 2.463-.573 4.936-1.169 7.408-1.762a1204.5 1204.5 0 0 0 11.055-2.695c2.101-.524 4.21-1.066 6.318-1.604 4.15-1.062 8.308-2.136 12.485-3.251 1.659-.441 3.324-.894 4.988-1.345a1278.35 1278.35 0 0 0 17.6-4.901c5.386-1.543 10.789-3.12 16.213-4.75.226-.068.451-.137.677-.204 95.201-28.605 196.224-70.433 297.183-125.058a571.267 571.267 0 0 0 5.542-3.053c1.316-.732 2.632-1.465 3.955-2.192 4.786-2.628 9.518-5.29 14.253-7.948a1790.542 1790.542 0 0 0 20.261-11.559c1.049-.606 2.089-1.216 3.135-1.824a1634.613 1634.613 0 0 0 34.671-20.702c6.243-3.836 12.406-7.71 18.547-11.594 1.714-1.085 3.44-2.164 5.146-3.252a1649.92 1649.92 0 0 0 17.075-11.047c1.944-1.278 3.892-2.554 5.827-3.836a1625.593 1625.593 0 0 0 16.666-11.158c1.68-1.145 3.351-2.292 5.02-3.44 5.815-3.984 11.608-7.975 17.315-11.996 3.506-2.471 6.966-4.957 10.429-7.442 4.102-2.941 8.211-5.88 12.254-8.84 3.599-2.635 7.133-5.288 10.685-7.936a1574.484 1574.484 0 0 0 17.133-12.966c1.006-.78 2.023-1.56 3.028-2.34a1371.856 1371.856 0 0 0 15.622-12.207c5.807-4.616 11.578-9.24 17.236-13.886 2.679-2.2 5.274-4.415 7.921-6.622 4.232-3.53 8.479-7.056 12.624-10.6 2.737-2.34 5.396-4.69 8.095-7.035a1339.94 1339.94 0 0 0 8.996-7.878c3.518-3.117 6.996-6.239 10.447-9.364 3.897-3.529 7.783-7.058 11.589-10.595 4.665-4.333 9.208-8.676 13.737-13.02 1.608-1.543 3.251-3.082 4.841-4.626 2.237-2.171 4.442-4.344 6.644-6.517 1.353-1.334 2.667-2.671 4.006-4.005 4.482-4.468 8.932-8.936 13.267-13.409l.26-.272a1050.262 1050.262 0 0 0 14.059-14.803c74.863-80.394 125.295-160.788 144.281-232.411l-110.92-266.311z" fill="#19283e"/><path d="m743.109 442.219-200.818 308.094c7.984 36.999 35.12 82.691 110.078 121.339 0 0 40.269 11.983 69.483 40.215a120.757 120.757 0 0 1 5.054 5.184 59.095 59.095 0 0 1 7.044-4.183c9.627-4.844 19.957-6.771 29.987-6.122l.026.002c20.001 1.303 38.807 12.866 48.467 32.067a58.998 58.998 0 0 1 3.59 8.869c93.895-.144 185.31-15.031 269.681-56.989a471.18 471.18 0 0 0 5.451-2.749c37.325-19.15 75.488-42.825 104.112-74.492a214.328 214.328 0 0 0 6.702-7.779c4.88-5.954 9.426-12.177 13.568-18.692a213.692 213.692 0 0 0 3.707-6.047c23.126-22.44 30.954-53.208 17.006-74.71-5.083-7.835-12.472-13.527-21.253-17.024l-.272-.109.404.101c11.708 2.927 21.927 9.711 28.812 21.648 15.384 26.675-1.509 62.487-20.602 89.271a245.801 245.801 0 0 1 -15.638 19.685 230.06 230.06 0 0 1 -2.719 3.028c-30.047 32.87-68.453 57.644-108.098 77.838a696.176 696.176 0 0 1 -15.83 7.806c-82.809 39.566-170.071 61.547-262.375 56.609-.015 21.374-11.795 41.956-32.192 52.216-26.366 13.264-57.996 4.685-74.311-18.925-11.334 8.588-24.586 16.812-39.904 23.604a194.426 194.426 0 0 1 -8.413 3.494c-17.847 6.936-35.735 10.866-53.25 12.515-85.412 8.108-161.964-37.564-182.149-49.582a317.684 317.684 0 0 1 -28.748-19.339l-247.79 380.159 455.623-85.844 607.222-114.406 117.54-22.146 271.195-51.095 107.168-190.318 136.663-242.696 264.023-468.874z" fill="#142134"/><path d="m1236.246 706.225c-5.083-7.835-12.472-13.527-21.253-17.024l-.272-.109c-16.552-6.483-37.999-5.2-58.345 4.251a98.383 98.383 0 0 0 -12.096 6.694c-34.186 22.177-48.439 60.906-31.835 86.501 3.208 4.946 7.339 9.037 12.154 12.263 12.694 19.115 41.101 24.069 70.665 14.652a214.328 214.328 0 0 0 6.702-7.779c4.88-5.954 9.426-12.177 13.568-18.692a213.692 213.692 0 0 0 3.707-6.047c23.126-22.44 30.954-53.208 17.005-74.71z" fill="#0e1728"/><path d="m1710.667 885.411-107.168 190.318 22.28 58.312 107.721-192.359 136.688-244.085 256.566-458.153-15.402-65.604-264.023 468.875z"/><path d="m1355.465 1183.894-132.564 24.448-592.047 109.189 120.248 288.738 8.409 20.159c38.229 12.464 83.734 18.607 134.547 18.607 4.962 0 9.976-.061 15.039-.177 1.974-.045 3.991-.138 5.982-.203 3.107-.099 6.2-.182 9.343-.323 2.466-.112 4.975-.275 7.465-.413 2.705-.15 5.392-.28 8.123-.46 2.776-.183 5.593-.422 8.398-.638 2.483-.192 4.95-.364 7.455-.581 3.004-.261 6.046-.575 9.078-.872 2.342-.23 4.668-.44 7.026-.69 3.147-.337 6.331-.722 9.505-1.097 2.297-.271 4.583-.525 6.896-.816 3.21-.403 6.454-.856 9.691-1.3 2.322-.318 4.633-.621 6.968-.958 3.232-.467 6.495-.98 9.751-1.485 2.393-.371 4.776-.729 7.183-1.122 3.205-.523 6.44-1.087 9.672-1.646 2.508-.435 5.011-.857 7.535-1.315 3.125-.565 6.275-1.168 9.423-1.767 2.69-.512 5.375-1.018 8.081-1.555 2.973-.589 5.966-1.213 8.959-1.833 2.948-.61 5.893-1.219 8.857-1.857 2.749-.593 5.513-1.215 8.278-1.833 3.276-.733 6.552-1.466 9.847-2.234 2.463-.573 4.936-1.169 7.408-1.762a1204.5 1204.5 0 0 0 11.055-2.695c2.101-.524 4.21-1.066 6.318-1.604 4.15-1.062 8.308-2.136 12.485-3.251 1.659-.441 3.324-.894 4.988-1.345a1278.35 1278.35 0 0 0 17.6-4.901c5.386-1.543 10.789-3.12 16.213-4.75.226-.068.451-.137.677-.204 95.201-28.605 196.224-70.433 297.183-125.058a571.267 571.267 0 0 0 5.542-3.053z" fill="#142134"/><path d="m894.058 1645.035c4.962 0 9.976-.061 15.039-.177 1.974-.045 3.991-.138 5.982-.203 3.107-.099 6.2-.182 9.343-.323 2.466-.112 4.975-.275 7.465-.413 2.705-.15 5.392-.28 8.123-.46 2.776-.183 5.593-.422 8.398-.638 2.483-.192 4.95-.364 7.455-.581 3.004-.261 6.046-.575 9.078-.872 2.342-.23 4.668-.44 7.026-.69 3.147-.337 6.331-.722 9.505-1.097 2.297-.271 4.583-.525 6.896-.816 3.21-.403 6.454-.856 9.691-1.3 2.322-.318 4.633-.621 6.968-.958 3.232-.467 6.495-.98 9.751-1.485 2.393-.371 4.776-.729 7.183-1.122 3.205-.523 6.44-1.087 9.672-1.646 2.508-.435 5.011-.857 7.535-1.315 3.125-.565 6.275-1.168 9.423-1.767 2.69-.512 5.375-1.018 8.081-1.555 2.973-.589 5.966-1.213 8.959-1.833 2.948-.61 5.893-1.219 8.857-1.857 2.749-.593 5.513-1.215 8.278-1.833 3.276-.733 6.552-1.466 9.847-2.234 2.463-.573 4.936-1.169 7.408-1.762a1204.5 1204.5 0 0 0 11.055-2.695c2.101-.524 4.21-1.066 6.318-1.604 4.15-1.062 8.308-2.136 12.485-3.251 1.659-.441 3.324-.894 4.988-1.345a1278.35 1278.35 0 0 0 17.6-4.901c5.386-1.543 10.789-3.12 16.213-4.75.226-.068.451-.137.677-.204 35.903-86.834 55.761-180.108 57.968-268.731.97-38.284-.15-79.928-4.424-122.271l-592.047 109.189 120.248 288.738 8.409 20.159c38.229 12.459 83.734 18.603 134.547 18.603z" fill="#080e1a"/><path d="m1836.827 1196.318c74.863-80.394 125.295-160.788 144.281-232.411l-110.92-266.311-136.688 244.086z" fill="#142134"/><path d="m1243.937 710.842c15.384 26.675-1.509 62.487-20.602 89.271l.323-.206c38.228-24.8 55.757-65.654 39.153-91.25-9.234-14.236-27.086-20.749-47.686-19.464 11.708 2.927 21.927 9.711 28.812 21.649z" fill="#0e1728"/><path d="m713.717 922.574c-16.296 5.253-50.849-15.675-64.765-22.96-21.243-11.086-41.662-23.858-63.787-33.229 26.581 20.687 61.876 30.01 86.042 54.202 6.492 6.475 22.18 19.666 16.673 30.397-3.468 6.761-18.434 9.528-25.159 9.021-22.89-1.716-45.718-7.861-68.296-12.424 18.619 12.661 64.038 4.97 76.427 29.234 9.382 18.362-42.149 27.201-53.936 28.914 14.177 1.882 29.994-3.239 44.486-3.841 8.401-.355 14.315 1.51 15.746 4.722 1.248 2.8-.91 6.622-7.801 10.893a49.84 49.84 0 0 1 -.849.516c-15.544 9.201-34.357 12.049-51.29 17.769-2.206.746-4.411 1.492-6.602 2.195 17.515-1.649 35.403-5.579 53.25-12.515 2.807-1.09 5.61-2.252 8.413-3.494 15.318-6.792 28.57-15.016 39.904-23.604a59.202 59.202 0 0 1 -4.169-7.022 58.374 58.374 0 0 1 -5.555-17.302l-.001-.009c-3.382-21.79 5.878-44.133 24.46-56.986a120.178 120.178 0 0 0 -5.054-5.184c.604 4.747-1.637 8.6-8.137 10.707z" fill="#a91c1b"/><path d="m708.609 966.629.001.011a38.957 38.957 0 0 0 3.717 11.628 38.853 38.853 0 0 0 9.618 12.228c11.569 9.788 28.311 12.309 42.702 5.07 19.226-9.671 26.97-33.095 17.298-52.32-6.526-12.974-19.315-20.718-32.852-21.411l-.027-.001a38.714 38.714 0 0 0 -15.966 2.572 39.78 39.78 0 0 0 -3.475 1.541c-15.46 7.779-23.493 24.452-21.016 40.682zm55.542 49.941c3.568 5.059 15.712 2.637 27.124-5.412 11.413-8.048 17.772-18.674 14.202-23.734-3.568-5.059-15.711-2.637-27.123 5.412-11.411 8.049-17.771 18.675-14.203 23.734zm-284.575-204.731a223.269 223.269 0 0 0 14.933 11.783c32.417 23.419 64.137 33.098 82.482 37.353-31.331-16.208-54.243-35.245-70.925-55.083-59.186-70.384-39.942-150.853-39.942-150.853l-60.916 30.644c4.522 20.801 20.167 79.497 74.368 126.156zm-24.341 72.034c-77.876-58.112-118.115-131.225-118.115-131.225l-26.036 42.176c33.829 53.038 83.115 87.614 130.465 110.047 73.032 34.601 141.456 40.314 141.456 40.314-50.056-12.046-92.723-35.16-127.77-61.312z" fill="#e73443"/><path d="m1198.214 796.433a99.432 99.432 0 0 0 6.197-3.706 97.559 97.559 0 0 0 14.829-11.792c23.126-22.44 30.954-53.208 17.006-74.71-5.083-7.835-12.472-13.527-21.253-17.024l-.272-.109c-16.552-6.483-37.999-5.2-58.345 4.251a98.383 98.383 0 0 0 -12.096 6.694c-34.186 22.177-48.439 60.906-31.835 86.501 3.208 4.946 7.339 9.037 12.154 12.263 18.619 12.472 47.538 11.978 73.615-2.368z"/><path d="m1046.77 1800.373c-.946.034-1.892.064-2.838.084 52.721-57.731 94.887-127.093 125.422-201.105-100.671 30.297-194.723 45.683-275.297 45.683-50.813 0-96.318-6.143-134.547-18.607l22.782 54.749a135.212 135.212 0 0 0 10.377 25.049c34.532 63.755 117.132 94.769 226.991 94.769.957 0 1.915-.004 2.876-.009 3.892-.02 7.824-.086 11.795-.23 1.349 0 2.658-.04 3.994-.054.258-.003.517-.006.777-.006l1.266-.048 3.505-.131c1.128-.048 2.257-.098 3.389-.15l.305-.013.797-.038c.53-.025 1.061-.052 1.593-.08-1.062.055-2.125.099-3.187.137z" fill="#a91c1b"/><path d="m1836.846 1196.365c-90.057 96.736-215.599 193.472-364.759 274.881l71.009 174.924.024.059c1.127-.619 2.255-1.214 3.382-1.816.721-.384 1.443-.771 2.164-1.167 147.923-80.023 271.094-176.471 356.074-272.009l.013-.014c.705-.793 1.409-1.586 2.109-2.379l-.003-.007-.009-.022z" fill="#e73443"/></svg>